<?xml version="1.0" encoding="UTF-8"?>
<svg width="500px" height="104px" viewBox="0 0 500 104" version="1.1" xmlns="http://www.w3.org/2000/svg" xmlns:xlink="http://www.w3.org/1999/xlink">
    <!-- Generator: Sketch 49.3 (51167) - http://www.bohemiancoding.com/sketch -->
    <title>Overall</title>
    <desc>Created with Sketch.</desc>
    <defs></defs>
    <g id="Page-1" stroke="none" stroke-width="1" fill="none" fill-rule="evenodd">
        <g id="Overall">
            <rect id="Rectangle" fill="#FFFFFF" x="17" y="0" width="467" height="104"></rect>
            <g id="ramlogo" fill="#009DE0" fill-rule="nonzero">
                <path d="M429.1625,75.6175 C426.0237,75.6175 423.7387,73.6525 423.7387,70.035 L423.7387,31.1075 C423.7387,27.4925 426.0237,25.52625 429.1625,25.52625 C432.3,25.52625 434.59,27.4925 434.59,31.1075 L434.59,65.67375 L454.955,65.67375 C457.8262,65.67375 459.9025,67.6425 459.9025,70.67375 C459.9025,73.59625 457.8262,75.6175 454.955,75.6175 M378.5337,75.6175 C375.4,75.6175 373.11,73.6525 373.11,70.035 L373.11,31.1075 C373.11,27.4925 375.4,25.52625 378.5337,25.52625 C381.6762,25.52625 383.9562,27.4925 383.9562,31.1075 L383.9562,65.67375 L404.2737,65.67375 C407.1475,65.67375 409.2175,67.6425 409.2175,70.67375 C409.2175,73.59625 407.1475,75.6175 404.2737,75.6175 M50.6825,31.48 C50.6825,27.865 52.86,25.89625 55.9987,25.89625 L73.3362,25.89625 C79.665,25.89625 84.5587,27.70375 87.855,30.94875 C90.5662,33.715 92.1075,37.64875 92.1075,42.32875 L92.1075,42.43375 C92.1075,50.2525 88.1725,55.09125 82.1625,57.5925 L89.6625,66.685 C90.7262,68.01625 91.5225,69.0775 91.5225,70.78125 C91.5225,73.81125 88.7575,76.045 85.9925,76.045 C83.545,76.045 82.2162,74.82125 80.9412,73.1725 L70.3062,59.715 L61.53,59.715 L61.53,70.46 C61.53,74.07625 59.2437,76.045 56.1062,76.045 C52.9675,76.045 50.6825,74.07625 50.6825,70.46 L50.6825,31.48 M266.9637,25.89625 C272.6025,25.89625 277.1225,27.4925 279.995,30.365 C282.23,32.5975 283.3412,35.47 283.3412,38.76625 C283.3412,44.5075 280.3675,47.64625 276.8012,49.615 C282.545,51.79375 286.1075,55.1425 286.1075,61.84125 C286.1075,71.0975 278.72,75.6175 267.495,75.6175 L249.3075,75.6175 C246.1725,75.6175 243.8837,73.6525 243.8837,70.035 L243.8837,31.48 C243.8837,27.865 246.1725,25.89625 249.3075,25.89625 M222.5562,70.46 C222.5562,74.07625 220.2737,76.045 217.1337,76.045 C213.9975,76.045 211.71,74.07625 211.71,70.46 L211.71,45.78625 L202.1375,60.56625 C201.02,62.27 199.5862,63.33625 197.6175,63.33625 C195.5962,63.33625 194.1612,62.27 193.0425,60.56625 L183.6325,45.99875 L183.6325,70.46 C183.6325,74.07625 181.3437,76.045 178.2062,76.045 C175.0687,76.045 172.7825,74.07625 172.7825,70.46 L172.7825,30.68375 C172.7825,27.2275 175.8137,25.5775 178.685,25.5775 C181.3975,25.5775 183.3675,26.58875 184.6962,28.76875 L197.725,49.9875 L210.7525,28.76875 C212.0825,26.58875 213.9437,25.5775 216.6562,25.5775 C219.5262,25.5775 222.5562,27.2275 222.5562,30.68375 L222.5562,70.46 M478.7287,103.75 C493.6175,103.75 500,97.36625 500,82.47875 L500,21.27 C500,6.38 493.6175,0 478.7287,0 L373.11,0 L327.43,54.985 L325.7262,54.185 L329.98,35.3625 C329.2925,35.20125 328.5987,35.15 327.8525,35.15 C319.0275,35.15 312.9137,42.115 312.9137,50.625 L312.9137,50.78375 C312.9137,59.29125 319.1887,66.3625 327.96,66.3625 C336.7875,66.3625 342.8525,59.44875 342.8525,50.9425 L342.8525,50.78375 C342.8525,49.18875 342.64,47.64625 342.21,46.26625 L351.5175,38.92625 C353.2725,42.43375 354.2875,46.42375 354.2875,50.625 L354.2875,50.78375 C354.2875,64.8775 343.17,76.46875 327.8525,76.46875 C312.485,76.46875 301.5325,65.035 301.5325,50.9425 L301.5325,50.78375 C301.5325,36.64 312.6425,25.09875 327.96,25.09875 C329.4487,25.09875 330.8887,25.20625 332.2662,25.365 L338.1187,1.13686838e-13 L21.2725,1.13686838e-13 C6.3825,1.13686838e-13 -2.84217094e-14,6.38 -2.84217094e-14,21.27 L-2.84217094e-14,82.47875 C-2.84217094e-14,97.36625 6.3825,103.75 21.2725,103.75 L478.7287,103.75 Z M142.2562,64.44875 L120.4012,64.44875 L116.945,72.64125 C116.0387,74.82125 114.3375,76.045 112.105,76.045 C109.2325,76.045 106.84,73.91875 106.84,71.04625 C106.84,70.25 107.105,69.34125 107.4762,68.54625 L124.8137,29.45875 C126.0362,26.7475 128.1637,25.15 131.46,25.15 C134.7587,25.15 136.94,26.7475 138.1625,29.45875 L155.445,68.54625 C155.8175,69.34125 156.0825,70.25 156.0825,71.04625 C156.0825,73.91875 153.6387,76.045 150.7137,76.045 C148.425,76.045 146.6725,74.82125 145.7662,72.64125 L142.2562,64.44875 M124.4425,54.825 L138.215,54.825 L131.3012,38.39375 L124.4425,54.825 Z M272.4425,40.78625 C272.4425,37.27875 269.9425,35.52125 265.3162,35.52125 L254.52,35.52125 L254.52,45.99875 L264.6225,45.99875 C269.4637,45.99875 272.4425,44.45625 272.4425,40.78625 Z M72.43,35.78875 L61.53,35.78875 L61.53,50.04125 L72.645,50.04125 C77.9637,50.04125 80.9937,47.22125 80.9937,43.02 L80.9937,42.86 C80.9937,38.1825 77.75,35.78875 72.43,35.78875 Z M267.1225,55.09125 L254.52,55.09125 L254.52,65.995 L267.495,65.995 C272.3375,65.995 275.26,64.29125 275.26,60.62375 C275.26,57.1125 272.76,55.09125 267.1225,55.09125 Z" id="path22"></path>
            </g>
        </g>
    </g>
</svg>